<svg width="1920" height="73" viewBox="0 0 1920 73" fill="none" xmlns="http://www.w3.org/2000/svg">
<path d="M0 72L-4.59716e-07 26.0005L66.5 71.9994L0 72Z" fill="#5BB5E9"/>
<path d="M66 0L66.5 72L0 26V0H66Z" fill="#EE3523"/>
<path d="M1640 72L1640 15.5L1706.5 71.9994L1640 72Z" fill="#5BB5E9"/>
<path d="M1640 72L1640 15.5L1593 71.9994L1640 72Z" fill="#5BB5E9"/>
<path d="M1706 0.0292969L1706.5 72.0293L1628 5.5L1621.5 0L1706 0.0292969Z" fill="#EE3523"/>
<path d="M66 0H180L66 72V0Z" fill="white"/>
<path d="M180 72L66 72L180 0L180 72Z" fill="#EE3523"/>
<path d="M180 0L252.5 72H180V0Z" fill="#5BB5E9"/>
<path d="M252.503 72L325 -3.16893e-06L324.503 72L252.503 72Z" fill="#5BB5E9"/>
<path d="M252.5 72L180 0.000264446L325 0.000274658L252.5 72Z" fill="#FEE800"/>
<path d="M470 0L542.5 72H470V0Z" fill="#5BB5E9"/>
<path d="M542.503 72L615 -3.16893e-06L614.503 72L542.503 72Z" fill="#5BB5E9"/>
<path d="M542.5 72L470 0.000264446L615 0.000274658L542.5 72Z" fill="#FEE800"/>
<path d="M470 72L397.5 6.33815e-06L470 0L470 72Z" fill="#EE3523"/>
<path d="M397.497 0L324.5 72.5L325 0L397.497 0Z" fill="#EE3523"/>
<path d="M397.5 -6.33816e-06L470 71.9997L325 71.9997L397.5 -6.33816e-06Z" fill="#5BB5E9"/>
<path d="M1217.5 72L1145 6.33815e-06L1217.5 0L1217.5 72Z" fill="#FEE800"/>
<path d="M1145 9.5068e-06L1071.5 72L1071.5 9.5068e-06L1145 9.5068e-06Z" fill="#5BB5E9"/>
<path d="M1145 -1.28511e-05L1217.5 71.9997L1071.5 71.9997L1145 -1.28511e-05Z" fill="#EE3523"/>
<path d="M1593 72L1520.5 6.33815e-06L1593 0L1593 72Z" fill="#EE3523"/>
<path d="M1593 72L1653 1.00134e-05L1593 7.62939e-06L1593 72Z" fill="#EE3523"/>
<path d="M1520.5 9.63794e-06L1446.5 72L1446.5 0L1520.5 9.63794e-06Z" fill="#5BB5E9"/>
<path d="M1520.5 -1.29386e-05L1593 71.9997L1446.5 71.9997L1520.5 -1.29386e-05Z" fill="#FEE800"/>
<path d="M1706 0L1779.5 72.0015L1706.5 72.0015L1706 0Z" fill="white"/>
<path d="M1779.5 72L1853.5 -8.54313e-06L1853.5 72L1779.5 72Z" fill="#5BB5E9"/>
<path d="M1779.5 72L1706 0.000282825L1853.5 0.000282288L1779.5 72Z" fill="#FEE800"/>
<path d="M729 0L615 9.9662e-06L729 72L729 0Z" fill="white"/>
<path d="M614.5 72L729 72L615 -7.62939e-06L614.5 72Z" fill="#EE3523"/>
<path d="M957.5 0.000209813L843 0L957.5 72.0002L957.5 0.000209813Z" fill="#EE3523"/>
<path d="M843 72L957.5 72L843 0V72Z" fill="#FEE800"/>
<path d="M1071.5 0.000209813L957 0L1071.5 72.0002L1071.5 0.000209813Z" fill="white"/>
<path d="M957 72L1071.5 72L957 0V72Z" fill="white"/>
<path d="M729 0H843L729 72V0Z" fill="#EE3523"/>
<path d="M843 72L729 72L843 0L843 72Z" fill="#5BB5E9"/>
<path d="M1446.5 0.000209813L1332 0L1446.5 72.0002L1446.5 0.000209813Z" fill="#EE3523"/>
<path d="M1332 72L1446.5 72L1332 0V72Z" fill="#5BB5E9"/>
<path d="M1217.5 0H1332L1217.5 72V0Z" fill="#5BB5E9"/>
<path d="M1332 72L1217.5 72L1332 0L1332 72Z" fill="white"/>
<path d="M1919.5 0L1919.5 45.9994L1853.5 8.58929e-06L1919.5 0Z" fill="#5BB5E9"/>
<path d="M1853.5 72L1853.5 -1.85949e-06L1919.5 46L1919.5 72L1853.5 72Z" fill="#EE3523"/>
</svg>
